Coordinates
version=1
nRows=13
nColumns=40
inDegrees=yes

Units are S.I. units (second, meters, Newtons, ...)
If the header above contains a line with 'inDegrees', this indicates whether rotational values are in degrees (yes) or radians (no).

endheader
time	pelvis_tilt	pelvis_list	pelvis_rotation	pelvis_tx	pelvis_ty	pelvis_tz	hip_flexion_r	hip_adduction_r	hip_rotation_r	knee_angle_r	knee_angle_r_beta	ankle_angle_r	subtalar_angle_r	mtp_angle_r	hip_flexion_l	hip_adduction_l	hip_rotation_l	knee_angle_l	knee_angle_l_beta	ankle_angle_l	subtalar_angle_l	mtp_angle_l	lumbar_extension	lumbar_bending	lumbar_rotation	arm_flex_r	arm_add_r	arm_rot_r	elbow_flex_r	pro_sup_r	wrist_flex_r	wrist_dev_r	arm_flex_l	arm_add_l	arm_rot_l	elbow_flex_l	pro_sup_l	wrist_flex_l	wrist_dev_l
      0.17000000	     23.23185114	      9.13450324	    -11.10846918	      0.00881894	      0.93940374	     -0.24703304	    -26.14949057	    -14.42039442	     -3.88714519	     49.26123346	      0.85977072	     -4.65086563	      0.00000000	      0.00000000	     -0.82578174	     11.90294902	     -7.45615857	     23.02974275	      0.40194484	      3.32237706	      0.00000000	      0.00000000	    -34.39804564	    -18.58481819	      9.62147768	     -2.71132198	      0.71544845	    -15.55688037	     32.20466593	     89.37212265	    -12.60671648	      2.11008487	      1.61003476	     -4.29858397	     16.34103052	     19.97927148	     88.74248637	    -11.14018164	      0.56444105
      0.18000000	     23.36766495	      9.30508812	    -11.06546841	      0.02212416	      0.94173619	     -0.24825023	    -24.57443439	    -14.99775112	     -3.85249678	     51.96878654	      0.90702643	     -5.37673059	      0.00000000	      0.00000000	     -2.00118418	     12.39847463	     -7.03862418	     22.63458213	      0.39504798	      3.90807008	      0.00000000	      0.00000000	    -34.63606552	    -18.54570742	      9.30237378	     -3.05157907	      0.86212299	    -15.76753742	     31.72246916	     89.37569663	    -12.52092593	      2.39958608	      1.98650582	     -4.31532475	     16.47889083	     20.37361567	     88.73872714	    -11.16029429	      0.50450922
      0.19000000	     23.68010046	      9.17134179	    -10.83347455	      0.03511555	      0.94448076	     -0.24963416	    -23.31833118	    -15.21493278	     -4.10192266	     54.25548250	      0.94693681	     -5.22856468	      0.00000000	      0.00000000	     -3.38645594	     12.52176798	     -6.94369251	     22.36753960	      0.39038721	      4.36675487	      0.00000000	      0.00000000	    -35.13496379	    -18.11645371	      8.89918984	     -3.30214592	      0.95371040	    -15.89846681	     31.14309448	     89.38240696	    -12.53323325	      2.55240095	      2.45841259	     -4.28247749	     16.60642316	     20.63073148	     88.70010993	    -11.15382475	      0.46186454
      0.20000000	     23.11709978	      9.76596110	    -11.10921127	      0.04788786	      0.94541231	     -0.25041962	    -20.45118567	    -16.16884438	     -3.48971599	     57.09812284	      0.99655024	     -4.32899471	      0.00000000	      0.00000000	     -3.68952910	     13.36040653	     -6.71481961	     21.86100141	      0.38154645	      4.95717328	      0.00000000	      0.00000000	    -34.52867784	    -18.57137190	      8.63157160	     -3.52342689	      1.15083696	    -16.07670232	     30.55552111	     89.37803073	    -12.47156764	      2.94872312	      2.79655354	     -4.38896471	     16.68552159	     21.06153792	     88.76933654	    -11.42213544	      0.23833495
      0.21000000	     23.08921939	      9.71041476	    -11.04721037	      0.06031179	      0.94752981	     -0.25146705	    -18.52842199	    -16.33572495	     -3.28003584	     59.11093616	      1.03168046	     -3.16094950	      0.00000000	      0.00000000	     -4.74874422	     13.56330837	     -6.37945137	     21.36621346	      0.37291077	      5.55189219	      0.00000000	      0.00000000	    -34.66261128	    -18.27957061	      8.29103729	     -3.68390100	      1.23495225	    -16.13256545	     29.98889885	     89.38061441	    -12.51154122	      3.12477365	      3.25164382	     -4.42464380	     16.81178149	     21.43093598	     88.77862704	    -11.63463349	      0.03231205
      0.22000000	     23.11674963	      9.52110827	    -10.93267896	      0.07254034	      0.94980276	     -0.25244733	    -16.71960624	    -16.26663666	     -3.08461396	     60.70828796	      1.05955951	     -1.69130864	      0.00000000	      0.00000000	     -5.92070390	     13.62387103	     -5.97533540	     20.82612641	      0.36348448	      6.09462559	      0.00000000	      0.00000000	    -34.88617852	    -17.82583089	      7.89326591	     -3.80150357	      1.32033594	    -16.19893371	     29.44383193	     89.38380538	    -12.57464369	      3.26446713	      3.71284544	     -4.47714194	     16.97843059	     21.82206050	     88.79449906	    -11.80000210	     -0.15216498
      0.23000000	     23.05439552	      9.27999253	    -10.80946241	      0.08454894	      0.95193160	     -0.25336974	    -14.80883603	    -16.08503691	     -2.93505896	     61.98513502	      1.08184469	      0.03591065	      0.00000000	      0.00000000	     -6.98480482	     13.59687135	     -5.62843253	     20.30065624	      0.35431329	      6.57942632	      0.00000000	      0.00000000	    -35.03021631	    -17.31359780	      7.52017154	     -3.89945322	      1.38456171	    -16.24820757	     28.91896988	     89.38079489	    -12.65189133	      3.40217924	      4.20451970	     -4.52656457	     17.09512211	     22.17887280	     88.79538627	    -12.03675268	     -0.36021617
      0.24000000	     22.69992741	      9.06555117	    -10.74546862	      0.09638112	      0.95349616	     -0.25414576	    -12.48618228	    -15.83975240	     -2.67488048	     63.05908304	      1.10058862	      1.87925495	      0.00000000	      0.00000000	     -7.64720723	     13.53768964	     -5.43146991	     19.91205753	      0.34753096	      7.10255002	      0.00000000	      0.00000000	    -34.82984555	    -16.83474163	      7.11264777	     -3.91234574	      1.44493759	    -16.12386412	     28.34116719	     89.38387294	    -12.85263199	      3.56274420	      4.61860564	     -4.58248417	     17.14843777	     22.48779630	     88.80811553	    -12.99915110	     -0.92403741
      0.25000000	     22.73524560	      8.63766117	    -10.61855446	      0.10821673	      0.95573954	     -0.25489132	    -10.81454894	    -15.34098413	     -2.58594145	     63.49081717	      1.10812380	      3.49159753	      0.00000000	      0.00000000	     -8.90153166	     13.32037186	     -5.11589158	     19.26152310	      0.33617700	      7.41622421	      0.00000000	      0.00000000	    -35.06621021	    -16.13681886	      6.74834182	     -4.00499955	      1.48825125	    -16.19565840	     27.94584069	     89.39080543	    -12.91573903	      3.63573900	      5.10828071	     -4.66265480	     17.28525957	     22.83320043	     88.81660874	    -13.15549573	     -1.05444553
      0.26000000	     22.67533123	      8.20723351	    -10.49828316	      0.12000088	      0.95771755	     -0.25552864	     -9.09066386	    -14.77902108	     -2.54469075	     63.56475377	      1.10941424	      5.01044454	      0.00000000	      0.00000000	    -10.02316367	     13.06968511	     -4.82124637	     18.66126327	      0.32570049	      7.74257355	      0.00000000	      0.00000000	    -35.20493178	    -15.44119003	      6.44398469	     -4.12130280	      1.53118594	    -16.28287653	     27.58911744	     89.40576369	    -12.98484955	      3.70574100	      5.61092528	     -4.73319478	     17.36120352	     23.17836111	     88.81267564	    -13.35974752	     -1.19555030
      0.27000000	     22.54996528	      7.64197582	    -10.22327129	      0.13176257	      0.95954383	     -0.25608713	     -7.52375306	    -13.93643382	     -2.63412360	     63.11355934	      1.10153941	      6.52146760	      0.00000000	      0.00000000	    -11.09700016	     12.63179605	     -4.20680187	     18.12449609	      0.31633213	      8.30742337	      0.00000000	      0.00000000	    -35.28856467	    -14.57997458	      5.98775812	     -4.15345363	      1.57504718	    -16.11259845	     27.15729721	     89.38838126	    -13.28827620	      3.75696746	      6.03304682	     -4.78822137	     17.48519198	     23.46520628	     88.80709502	    -15.53964975	     -2.07989449
      0.28000000	     22.38919009	      7.22234015	    -10.14792187	      0.14355006	      0.96103302	     -0.25647228	     -5.83140573	    -13.27642511	     -2.56433959	     62.48418730	      1.09055480	      7.59328006	      0.00000000	      0.00000000	    -12.13621937	     12.36320527	     -4.01588541	     17.41925391	      0.30402333	      8.57099325	      0.00000000	      0.00000000	    -35.26177752	    -13.91339724	      5.74586804	     -4.31075142	      1.63830243	    -16.30707290	     26.91763286	     89.38973006	    -13.34383222	      3.78862721	      6.50816143	     -4.91421310	     17.57110072	     23.85403071	     88.80599312	    -15.58868408	     -2.13760619
      0.29000000	     22.33483197	      6.65108843	     -9.93000493	      0.15538824	      0.96252710	     -0.25690407	     -4.51590258	    -12.38621535	     -2.62517026	     61.33835718	      1.07055629	      8.45537635	      0.00000000	      0.00000000	    -13.31041634	     11.91492404	     -3.62357926	     16.79482776	      0.29312504	      9.08020129	      0.00000000	      0.00000000	    -35.38305297	    -13.07151836	      5.56741667	     -4.55303356	      1.69421948	    -16.56095503	     26.78975957	     89.38576467	    -13.41204643	      3.76590743	      7.04668760	     -4.97636718	     17.52861185	     24.19862092	     88.81375906	    -15.86646234	     -2.21969059
